<svg width="46" height="46" viewBox="0 0 46 46" fill="none" xmlns="http://www.w3.org/2000/svg">
<rect y="-0.0693359" width="46" height="46" rx="23" fill="white"/>
<path d="M11.446 33.1007C9.85133 33.1007 8.36067 32.6413 6.974 31.7227L8.196 28.4987C8.88933 28.7413 9.47867 28.8627 9.964 28.8627C11.1253 28.8627 11.706 28.1433 11.706 26.7047V14.0427H17.296V26.7047C17.296 28.698 16.776 30.2667 15.736 31.4107C14.696 32.5373 13.266 33.1007 11.446 33.1007ZM20.6744 14.0427H28.4484C30.3204 14.0427 31.9757 14.4153 33.4144 15.1607C34.8704 15.906 35.997 16.946 36.7944 18.2807C37.609 19.6153 38.0164 21.1407 38.0164 22.8567C38.0164 24.6593 37.6177 26.2453 36.8204 27.6147C36.0404 28.984 34.9224 30.05 33.4664 30.8127C32.0277 31.558 30.355 31.9307 28.4484 31.9307H20.6744V14.0427ZM28.1884 27.2507C29.4884 27.2507 30.4764 26.8433 31.1524 26.0287C31.8457 25.1967 32.1924 24.122 32.1924 22.8047C32.1924 21.5567 31.8544 20.5687 31.1784 19.8407C30.5197 19.0953 29.523 18.7227 28.1884 18.7227H26.4204V27.2507H28.1884Z" fill="#333333"/>
</svg>
