<svg width="20" height="20" viewBox="0 0 20 20" fill="none" xmlns="http://www.w3.org/2000/svg">
<g clip-path="url(#clip0_1644_737)">
<path d="M1.1313 7.11587V15.8714C1.1313 17.5284 2.47138 18.8685 4.12821 18.8685H15.8718C17.5288 18.8685 18.8688 17.5284 18.8688 15.8714V7.14651C16.3341 7.80916 13.3076 8.19412 10.0581 8.19412C6.75783 8.19412 3.68902 7.79724 1.1313 7.11587ZM0.00270893 3.44922C0.000915996 3.49589 1.28569e-05 3.54259 0 3.58929L0 16.41C0 18.3886 1.61097 19.9997 3.58997 19.9997H16.4102C18.3891 19.9997 20 18.3886 20 16.41V3.58929C20 3.56516 19.9998 3.54088 19.9993 3.51684V6.82242C19.8485 6.86961 19.6957 6.91586 19.5408 6.96097V16.1155C19.5408 18.0037 18.0039 19.5406 16.1157 19.5406H3.88421C1.99613 19.5406 0.459138 18.0037 0.459138 16.1155V6.92684C0.304188 6.88084 0.151306 6.83375 0.000689545 6.78568V3.56915C0.000738798 3.52906 0.00137909 3.48902 0.00270893 3.44922Z" fill="#583EBC"/>
<path d="M1.1331 4.12372C1.1331 2.47113 2.47318 1.12691 4.13 1.12691H15.8736C17.5306 1.12691 18.8706 2.47113 18.8706 4.12372V15.8716C18.8706 17.5287 17.5306 18.8688 15.8736 18.8688H4.12996C2.47313 18.8688 1.13305 17.5287 1.13305 15.8716L1.1331 4.12372ZM0.460938 3.88395V16.1157C0.460938 18.0039 1.99793 19.5409 3.886 19.5409H16.1176C18.0057 19.5409 19.5426 18.0039 19.5426 16.1157V3.88395C19.5426 1.99598 18.0057 0.458984 16.1176 0.458984H3.886C1.99793 0.458984 0.460938 1.99598 0.460938 3.88395Z" fill="#583EBC"/>
<path d="M16.5715 0H3.38507C3.29642 0 3.20885 0.00448204 3.12182 0.0111312C1.40111 0.235529 0.0583158 1.68293 0 3.4496C0.0738305 1.53547 1.65515 0 3.58721 0H16.4075C18.3622 0 19.9579 1.57177 19.9966 3.51722V3.51028C19.9676 1.74726 18.6611 0.288279 16.9642 0.023149C16.8352 0.00837304 16.7044 0 16.5715 0" fill="#583EBC"/>
<path d="M15.8711 1.12701H4.12742C2.47059 1.12701 1.13051 2.47123 1.13051 4.12382V7.1162C3.68823 7.79757 6.757 8.19445 10.0573 8.19445C13.3067 8.19445 16.3332 7.80949 18.8679 7.14684V4.12387C18.868 2.47128 17.5279 1.12701 15.8711 1.12701ZM16.4094 0H3.58918C1.65712 0 0.0758007 1.53547 0.00197013 3.4496C0.000689545 3.48939 0 3.52943 0 3.56953V6.78601C0.15232 6.83466 0.305144 6.88171 0.458449 6.92717V3.88411C0.458449 1.99613 1.99544 0.459138 3.88352 0.459138H16.1151C18.0032 0.459138 19.5401 1.99613 19.5401 3.88411V6.96135C19.6934 6.91672 19.8463 6.87053 19.9986 6.8228V3.51722C19.9599 1.57177 18.3642 0 16.4094 0Z" fill="#583EBC"/>
<path d="M16.1176 0.458984H3.886C1.99793 0.458984 0.460938 1.99598 0.460938 3.88395V6.92701C0.684075 6.99318 0.908134 7.05619 1.13305 7.11605V4.12372C1.13305 2.47113 2.47313 1.12691 4.12996 1.12691H15.8736C17.5305 1.12691 18.8706 2.47113 18.8706 4.12372V7.14678C19.0954 7.08805 19.3195 7.0262 19.5427 6.96124V3.88395C19.5426 1.99598 18.0057 0.458984 16.1176 0.458984Z" fill="#583EBC"/>
<path d="M11.9926 5H10.2944C9.28669 5 8.16581 5.43878 8.16581 6.95102C8.17073 7.47795 8.16581 7.98259 8.16581 8.55052H7V10.4711H8.20188V16H10.4104V10.4346H11.8681L12 8.54514H10.3724C10.3724 8.54514 10.376 7.70463 10.3724 7.46054C10.3724 6.86293 10.973 6.89716 11.0091 6.89716C11.295 6.89716 11.8507 6.89802 11.9934 6.89716V5H11.9926Z" fill="white"/>
</g>
<defs>
<clipPath id="clip0_1644_737">
<rect width="20" height="20" rx="5" fill="white"/>
</clipPath>
</defs>
</svg>
