<svg width="27" height="27" viewBox="0 0 27 27" fill="none" xmlns="http://www.w3.org/2000/svg">
<g id="UI icon/twitter/filled">
<path id="Union" d="M22.0269 9.72346C22.001 9.48184 21.9708 9.2882 21.9459 9.1502L23.9835 6.09383C24.1116 5.90167 24.1035 5.64934 23.9633 5.46579C23.8231 5.28225 23.5818 5.20803 23.3627 5.28107L20.5291 6.2256C20.3793 6.00225 20.1572 5.70766 19.8612 5.41167C19.2617 4.81212 18.3213 4.17207 17.0461 4.17207C15.7242 4.17207 14.7459 4.54206 14.0474 5.14947C13.356 5.75064 12.9914 6.53859 12.8048 7.2847C12.6186 8.02985 12.602 8.76318 12.6289 9.30122C12.6367 9.45813 12.6484 9.60013 12.661 9.72304C11.3039 10.0116 9.8838 9.56954 8.49269 8.74398C6.95872 7.83363 5.55256 6.51083 4.45341 5.41167C4.30096 5.25922 4.07251 5.21192 3.87206 5.29131C3.67162 5.37069 3.5375 5.56158 3.53076 5.77706C3.39301 10.1851 4.30181 15.5206 8.4082 18.2262C6.68101 19.1606 4.98762 19.5963 2.92282 19.8544C2.68642 19.8839 2.49723 20.0647 2.45701 20.2996C2.41679 20.5344 2.53502 20.7678 2.7481 20.8744C8.32594 23.6633 15.5539 23.4617 19.6411 18.0121C21.3354 15.753 21.9032 13.4881 22.045 11.7857C22.1159 10.9355 22.0807 10.225 22.0269 9.72346Z" fill="white"/>
</g>
</svg>
