<svg width="208" height="123" viewBox="0 0 208 123" fill="none" xmlns="http://www.w3.org/2000/svg">
<rect x="19.3203" y="0.760254" width="200" height="56.4706" rx="12" transform="rotate(20.0035 19.3203 0.760254)" fill="#583EBC"/>
<rect x="19.6191" y="1.40113" width="199" height="55.4706" rx="11.5" transform="rotate(20.0035 19.6191 1.40113)" stroke="#583EBC"/>
<path d="M36.1634 43.0747L40.9525 29.9193L46.9288 32.0949C48.3571 32.6149 49.516 33.3489 50.4053 34.297C51.2992 35.2325 51.8752 36.3007 52.1334 37.5014C52.3915 38.7022 52.2766 39.9729 51.7886 41.3135C51.3051 42.6415 50.5762 43.6887 49.602 44.455C48.6323 45.2088 47.5021 45.6629 46.2114 45.8174C44.9253 45.9593 43.568 45.7703 42.1397 45.2503L36.1634 43.0747ZM40.1179 41.6835L42.8993 42.6961C43.7764 43.0153 44.5936 43.1284 45.3512 43.0353C46.1259 42.9342 46.8003 42.6405 47.3746 42.1543C47.9615 41.6726 48.4054 41.0184 48.7064 40.1915C49.012 39.352 49.0926 38.5655 48.9482 37.8318C48.8209 37.0902 48.4908 36.4379 47.9578 35.875C47.442 35.3041 46.7456 34.859 45.8686 34.5397L43.0871 33.5272L40.1179 41.6835ZM56.2397 50.5535C55.1622 50.1613 54.2858 49.5868 53.6106 48.8302C52.9479 48.0781 52.5136 47.2248 52.3078 46.2701C52.119 45.3075 52.2071 44.325 52.572 43.3227C52.9414 42.3078 53.5056 41.4987 54.2644 40.8952C55.0404 40.2837 55.9217 39.9093 56.9082 39.7718C57.9119 39.6263 58.9524 39.7497 60.0299 40.142C61.0949 40.5297 61.965 41.1018 62.6402 41.8585C63.32 42.6026 63.7566 43.4497 63.9499 44.3998C64.1432 45.3499 64.0529 46.3386 63.6789 47.366C63.314 48.3683 62.7498 49.1775 61.9864 49.7935C61.2275 50.397 60.3462 50.7714 59.3426 50.9169C58.339 51.0623 57.3047 50.9412 56.2397 50.5535ZM57.1154 48.148C57.6041 48.3259 58.0836 48.3727 58.5541 48.2886C59.0246 48.2045 59.4479 47.9967 59.8239 47.6654C60.2045 47.3215 60.4997 46.8614 60.7095 46.285C60.9239 45.6962 60.9936 45.154 60.9186 44.6584C60.8435 44.1629 60.6529 43.7316 60.3466 43.3647C60.0403 42.9978 59.6428 42.7254 59.1542 42.5475C58.6656 42.3697 58.186 42.3228 57.7155 42.4069C57.245 42.491 56.8155 42.6965 56.4269 43.0233C56.0509 43.3547 55.7557 43.8148 55.5413 44.4036C55.3315 44.98 55.2618 45.5222 55.3323 46.0302C55.4198 46.5304 55.6167 46.9639 55.923 47.3308C56.2293 47.6977 56.6268 47.9701 57.1154 48.148ZM65.8345 53.8761L65.8693 42.438L68.6319 43.4437L68.49 53.2466L67.1745 52.7677L73.4994 45.2157L75.9801 46.1188L75.8758 55.9353L74.5603 55.4564L80.8476 47.8907L83.4411 48.8348L76.0957 57.6116L73.2579 56.5785L73.2865 48.1392L74.151 48.4539L68.6535 54.9024L65.8345 53.8761ZM91.0043 51.4179C91.8061 51.7098 92.461 52.1326 92.9689 52.6864C93.4938 53.2323 93.8171 53.9033 93.9387 54.6996C94.0649 55.4834 93.9409 56.389 93.5669 57.4164L91.4597 63.2047L88.528 62.1375L90.471 56.8001C90.7674 55.9857 90.8047 55.3182 90.5827 54.7975C90.3733 54.2814 89.9429 53.9048 89.2914 53.6676C88.8278 53.4989 88.3716 53.4463 87.9227 53.5099C87.491 53.5656 87.0956 53.7551 86.7367 54.0785C86.3903 54.4065 86.103 54.8837 85.875 55.5101L84.0551 60.5092L81.1234 59.4419L84.8041 49.331L87.6043 50.3504L86.5849 53.1506L86.3666 52.1134C86.9762 51.5691 87.6855 51.2384 88.4943 51.1214C89.3031 51.0043 90.1398 51.1031 91.0043 51.4179ZM94.1173 64.1722L99.1937 50.2274L102.125 51.2947L97.049 65.2395L94.1173 64.1722ZM104.526 68.1318C103.449 67.7395 102.572 67.1651 101.897 66.4085C101.235 65.6564 100.8 64.803 100.594 63.8483C100.406 62.8857 100.494 61.9032 100.859 60.9009C101.228 59.886 101.792 59.0769 102.551 58.4734C103.327 57.862 104.208 57.4875 105.195 57.35C106.199 57.2046 107.239 57.328 108.317 57.7202C109.382 58.1079 110.252 58.6801 110.927 59.4367C111.607 60.1808 112.043 61.0279 112.237 61.978C112.43 62.9281 112.34 63.9169 111.966 64.9442C111.601 65.9466 111.036 66.7557 110.273 67.3717C109.514 67.9752 108.633 68.3497 107.629 68.4951C106.626 68.6406 105.591 68.5195 104.526 68.1318ZM105.402 65.7262C105.891 65.9041 106.37 65.951 106.841 65.8668C107.311 65.7827 107.735 65.575 108.111 65.2436C108.491 64.8997 108.786 64.4396 108.996 63.8633C109.211 63.2744 109.28 62.7322 109.205 62.2367C109.13 61.7411 108.94 61.3099 108.633 60.943C108.327 60.576 107.929 60.3036 107.441 60.1258C106.952 59.9479 106.473 59.901 106.002 59.9851C105.532 60.0693 105.102 60.2747 104.714 60.6015C104.338 60.9329 104.042 61.393 103.828 61.9819C103.618 62.5582 103.548 63.1004 103.619 63.6085C103.706 64.1086 103.903 64.5421 104.21 64.909C104.516 65.2759 104.913 65.5483 105.402 65.7262ZM118.121 72.9107L118.84 70.9373L118.809 70.4367L120.095 66.9035C120.324 66.2771 120.307 65.7177 120.047 65.2255C119.798 64.7379 119.28 64.3504 118.49 64.0631C117.952 63.8669 117.387 63.7608 116.797 63.7446C116.224 63.7205 115.703 63.7864 115.235 63.9423L114.929 61.5107C115.621 61.323 116.395 61.264 117.249 61.3338C118.103 61.4036 118.931 61.5844 119.733 61.8763C121.274 62.4373 122.339 63.2363 122.926 64.2731C123.513 65.3099 123.527 66.5989 122.966 68.1399L120.865 73.9095L118.121 72.9107ZM114.985 71.939C114.195 71.6516 113.567 71.2738 113.099 70.8054C112.635 70.3246 112.337 69.7976 112.205 69.2246C112.074 68.6515 112.112 68.0768 112.322 67.5005C112.541 66.8991 112.877 66.4254 113.329 66.0792C113.794 65.7376 114.392 65.5579 115.122 65.5399C115.857 65.5094 116.738 65.6812 117.765 66.0552L120.453 67.0335L119.83 68.7437L117.462 67.8817C116.773 67.6308 116.256 67.5703 115.911 67.7C115.578 67.8343 115.35 68.0706 115.227 68.4089C115.09 68.7847 115.125 69.1379 115.331 69.4683C115.554 69.7908 115.922 70.0455 116.436 70.2325C116.925 70.4104 117.404 70.4573 117.875 70.3731C118.35 70.2765 118.757 70.0345 119.097 69.6474L119.055 71.1647C118.605 71.7386 118.036 72.0921 117.349 72.2252C116.662 72.3582 115.874 72.2628 114.985 71.939ZM127.879 76.6329C126.926 76.2863 126.146 75.7609 125.537 75.0567C124.932 74.3399 124.546 73.5111 124.377 72.5701C124.222 71.6336 124.335 70.6392 124.718 69.5868C125.106 68.5218 125.661 67.6807 126.382 67.0636C127.116 66.451 127.942 66.0708 128.862 65.9231C129.781 65.7753 130.717 65.8747 131.669 66.2214C132.521 66.5315 133.198 66.9908 133.7 67.5993C134.202 68.2078 134.49 68.958 134.562 69.85C134.635 70.742 134.454 71.7831 134.021 72.9733C133.592 74.1511 133.067 75.0667 132.446 75.7204C131.83 76.3615 131.134 76.7537 130.358 76.897C129.595 77.0448 128.768 76.9568 127.879 76.6329ZM129.262 74.4121C129.738 74.5854 130.211 74.63 130.682 74.5459C131.152 74.4617 131.575 74.254 131.952 73.9226C132.345 73.5833 132.646 73.1255 132.856 72.5492C133.07 71.9603 133.134 71.4158 133.046 70.9157C132.971 70.4201 132.78 69.9889 132.474 69.622C132.168 69.2551 131.777 68.985 131.301 68.8116C130.812 68.6338 130.332 68.5869 129.862 68.671C129.391 68.7552 128.962 68.9606 128.573 69.2874C128.197 69.6188 127.902 70.0789 127.688 70.6677C127.478 71.2441 127.408 71.7863 127.479 72.2944C127.566 72.7945 127.763 73.228 128.069 73.5949C128.376 73.9618 128.773 74.2342 129.262 74.4121ZM131.091 77.632L131.843 75.5647L132.994 72.5783L133.894 69.5217L136.036 63.6393L138.967 64.7066L133.891 78.6514L131.091 77.632ZM148.347 84.1694C147.332 83.8 146.446 83.2927 145.687 82.6477C144.946 81.9947 144.367 81.2449 143.952 80.3984C143.536 79.5519 143.298 78.649 143.235 77.6898C143.185 76.7352 143.341 75.763 143.701 74.7732C144.061 73.7834 144.567 72.9389 145.219 72.2397C145.884 71.5451 146.647 71.0071 147.51 70.6258C148.385 70.2491 149.314 70.0552 150.297 70.0441C151.284 70.0206 152.292 70.1958 153.319 70.5698C154.459 70.9848 155.414 71.5593 156.182 72.2932C156.968 73.0191 157.535 73.8782 157.883 74.8705L155.272 75.9632C155.008 75.2853 154.646 74.7207 154.186 74.2695C153.73 73.8057 153.177 73.4552 152.525 73.218C151.912 72.9945 151.311 72.8895 150.725 72.903C150.138 72.9164 149.588 73.0427 149.076 73.2817C148.563 73.5208 148.106 73.8584 147.706 74.2945C147.319 74.7352 147.011 75.2688 146.783 75.8952C146.555 76.5217 146.448 77.1282 146.461 77.7149C146.487 78.3061 146.62 78.8581 146.859 79.3708C147.098 79.8835 147.438 80.3336 147.878 80.721C148.319 81.1085 148.847 81.414 149.46 81.6375C150.112 81.8747 150.759 81.9683 151.401 81.9184C152.048 81.856 152.693 81.6438 153.336 81.2817L154.634 83.7974C153.729 84.3336 152.74 84.6335 151.667 84.6969C150.606 84.7648 149.5 84.589 148.347 84.1694ZM159.808 88.0862L158.922 72.8647L162.21 74.0619L162.93 87.52L160.994 86.8154L170.273 76.997L173.299 78.0985L162.815 89.1809L159.808 88.0862Z" fill="white"/>
</svg>
