<svg width="200" height="58" viewBox="0 0 200 58" fill="none" xmlns="http://www.w3.org/2000/svg">
<rect y="0.760254" width="200" height="56.4706" rx="12" fill="#333333"/>
<path d="M63.5393 35.7603L70.4033 20.3603H73.9233L80.8093 35.7603H77.0693L71.4373 22.1643H72.8453L67.1913 35.7603H63.5393ZM66.9713 32.4603L67.9173 29.7543H75.8373L76.8053 32.4603H66.9713ZM89.1611 35.9363C88.1197 35.9363 87.2251 35.7163 86.4771 35.2763C85.7291 34.8363 85.1571 34.1689 84.7611 33.2743C84.3651 32.3649 84.1671 31.2209 84.1671 29.8423C84.1671 28.4489 84.3724 27.3049 84.7831 26.4103C85.2084 25.5156 85.7951 24.8483 86.5431 24.4083C87.2911 23.9683 88.1637 23.7483 89.1611 23.7483C90.2757 23.7483 91.2731 23.9976 92.1531 24.4963C93.0477 24.9949 93.7517 25.6989 94.2651 26.6083C94.7931 27.5176 95.0571 28.5956 95.0571 29.8423C95.0571 31.0743 94.7931 32.1449 94.2651 33.0543C93.7517 33.9636 93.0477 34.6749 92.1531 35.1883C91.2731 35.6869 90.2757 35.9363 89.1611 35.9363ZM82.1651 35.7603V19.4363H85.5971V26.3223L85.3771 29.8203L85.4431 33.3403V35.7603H82.1651ZM88.5671 33.1203C89.1391 33.1203 89.6451 32.9883 90.0851 32.7243C90.5397 32.4603 90.8991 32.0863 91.1631 31.6023C91.4417 31.1036 91.5811 30.5169 91.5811 29.8423C91.5811 29.1529 91.4417 28.5663 91.1631 28.0823C90.8991 27.5983 90.5397 27.2243 90.0851 26.9603C89.6451 26.6963 89.1391 26.5643 88.5671 26.5643C87.9951 26.5643 87.4817 26.6963 87.0271 26.9603C86.5724 27.2243 86.2131 27.5983 85.9491 28.0823C85.6851 28.5663 85.5531 29.1529 85.5531 29.8423C85.5531 30.5169 85.6851 31.1036 85.9491 31.6023C86.2131 32.0863 86.5724 32.4603 87.0271 32.7243C87.4817 32.9883 87.9951 33.1203 88.5671 33.1203ZM102.987 35.9363C101.725 35.9363 100.603 35.6723 99.6205 35.1443C98.6525 34.6163 97.8825 33.8976 97.3105 32.9883C96.7532 32.0643 96.4745 31.0156 96.4745 29.8423C96.4745 28.6543 96.7532 27.6056 97.3105 26.6963C97.8825 25.7723 98.6525 25.0536 99.6205 24.5403C100.603 24.0123 101.725 23.7483 102.987 23.7483C104.233 23.7483 105.348 24.0123 106.331 24.5403C107.313 25.0536 108.083 25.7649 108.641 26.6743C109.198 27.5836 109.477 28.6396 109.477 29.8423C109.477 31.0156 109.198 32.0643 108.641 32.9883C108.083 33.8976 107.313 34.6163 106.331 35.1443C105.348 35.6723 104.233 35.9363 102.987 35.9363ZM102.987 33.1203C103.559 33.1203 104.072 32.9883 104.527 32.7243C104.981 32.4603 105.341 32.0863 105.605 31.6023C105.869 31.1036 106.001 30.5169 106.001 29.8423C106.001 29.1529 105.869 28.5663 105.605 28.0823C105.341 27.5983 104.981 27.2243 104.527 26.9603C104.072 26.6963 103.559 26.5643 102.987 26.5643C102.415 26.5643 101.901 26.6963 101.447 26.9603C100.992 27.2243 100.625 27.5983 100.347 28.0823C100.083 28.5663 99.9505 29.1529 99.9505 29.8423C99.9505 30.5169 100.083 31.1036 100.347 31.6023C100.625 32.0863 100.992 32.4603 101.447 32.7243C101.901 32.9883 102.415 33.1203 102.987 33.1203ZM116.765 35.9363C115.782 35.9363 114.902 35.7456 114.125 35.3643C113.362 34.9829 112.768 34.4036 112.343 33.6263C111.917 32.8343 111.705 31.8296 111.705 30.6123V23.9243H115.137V30.1063C115.137 31.0889 115.342 31.8149 115.753 32.2843C116.178 32.7389 116.772 32.9663 117.535 32.9663C118.063 32.9663 118.532 32.8563 118.943 32.6363C119.353 32.4016 119.676 32.0496 119.911 31.5803C120.145 31.0963 120.263 30.4949 120.263 29.7763V23.9243H123.695V35.7603H120.439V32.5043L121.033 33.4503C120.637 34.2716 120.05 34.8949 119.273 35.3203C118.51 35.7309 117.674 35.9363 116.765 35.9363ZM131.714 35.9363C130.321 35.9363 129.235 35.5843 128.458 34.8803C127.681 34.1616 127.292 33.0983 127.292 31.6903V21.3063H130.724V31.6463C130.724 32.1449 130.856 32.5336 131.12 32.8123C131.384 33.0763 131.743 33.2083 132.198 33.2083C132.741 33.2083 133.203 33.0616 133.584 32.7683L134.508 35.1883C134.156 35.4376 133.731 35.6283 133.232 35.7603C132.748 35.8776 132.242 35.9363 131.714 35.9363ZM125.466 26.8283V24.1883H133.672V26.8283H125.466Z" fill="white"/>
</svg>
