<svg width="46" height="46" viewBox="0 0 46 46" fill="none" xmlns="http://www.w3.org/2000/svg">
<rect width="46" height="46" rx="23" fill="#583EBC"/>
<path d="M12.446 33.17C10.8513 33.17 9.36067 32.7107 7.974 31.792L9.196 28.568C9.88933 28.8107 10.4787 28.932 10.964 28.932C12.1253 28.932 12.706 28.2127 12.706 26.774V14.112H18.296V26.774C18.296 28.7673 17.776 30.336 16.736 31.48C15.696 32.6067 14.266 33.17 12.446 33.17ZM21.6744 14.112H29.4484C31.3204 14.112 32.9757 14.4847 34.4144 15.23C35.8704 15.9753 36.997 17.0153 37.7944 18.35C38.609 19.6847 39.0164 21.21 39.0164 22.926C39.0164 24.7287 38.6177 26.3147 37.8204 27.684C37.0404 29.0533 35.9224 30.1193 34.4664 30.882C33.0277 31.6273 31.355 32 29.4484 32H21.6744V14.112ZM29.1884 27.32C30.4884 27.32 31.4764 26.9127 32.1524 26.098C32.8457 25.266 33.1924 24.1913 33.1924 22.874C33.1924 21.626 32.8544 20.638 32.1784 19.91C31.5197 19.1647 30.523 18.792 29.1884 18.792H27.4204V27.32H29.1884Z" fill="white"/>
</svg>
