<svg width="417" height="508" viewBox="0 0 417 508" fill="none" xmlns="http://www.w3.org/2000/svg">
<g filter="url(#filter0_b_1644_755)">
<path d="M0.5 37C0.5 16.5655 17.0655 0 37.5 0H379.5C399.935 0 416.5 16.5655 416.5 37V338.5C416.5 358.935 399.935 375.5 379.5 375.5H356.549C318.034 375.5 286.976 407.031 287.557 445.541L287.933 470.442C288.245 491.092 271.59 508 250.937 508H37.5C17.0655 508 0.5 491.435 0.5 471V37Z" fill="white"/>
<path d="M1.5 37C1.5 17.1178 17.6177 1 37.5 1H379.5C399.382 1 415.5 17.1177 415.5 37V338.5C415.5 358.382 399.382 374.5 379.5 374.5H356.549C317.476 374.5 285.968 406.488 286.557 445.556L286.933 470.457C287.236 490.549 271.032 507 250.937 507H37.5C17.6177 507 1.5 490.882 1.5 471V37Z" stroke="url(#paint0_radial_1644_755)" stroke-opacity="0.5" stroke-width="2"/>
</g>
<defs>
<filter id="filter0_b_1644_755" x="-14.5" y="-15" width="446" height="538" filterUnits="userSpaceOnUse" color-interpolation-filters="sRGB">
<feFlood flood-opacity="0" result="BackgroundImageFix"/>
<feGaussianBlur in="BackgroundImageFix" stdDeviation="7.5"/>
<feComposite in2="SourceAlpha" operator="in" result="effect1_backgroundBlur_1644_755"/>
<feBlend mode="normal" in="SourceGraphic" in2="effect1_backgroundBlur_1644_755" result="shape"/>
</filter>
<radialGradient id="paint0_radial_1644_755" cx="0" cy="0" r="1" gradientUnits="userSpaceOnUse" gradientTransform="translate(208.5 254) rotate(-90) scale(254 363.68)">
<stop stop-color="white" stop-opacity="0"/>
<stop offset="1" stop-color="white"/>
</radialGradient>
</defs>
</svg>
