<svg width="166" height="30" viewBox="0 0 166 30" fill="none" xmlns="http://www.w3.org/2000/svg">
<path d="M18.9982 17.3043C18.7284 17.5658 18.6044 17.9439 18.6659 18.3147L19.5919 23.4397C19.6701 23.8741 19.4867 24.3137 19.1232 24.5647C18.7669 24.8252 18.293 24.8564 17.9044 24.6481L13.2909 22.2418C13.1305 22.1564 12.9523 22.1106 12.7701 22.1054H12.4878C12.3898 22.1199 12.294 22.1512 12.2065 22.1991L7.59193 24.6168C7.3638 24.7314 7.10547 24.772 6.85234 24.7314C6.23568 24.6147 5.82422 24.0272 5.92526 23.4074L6.85234 18.2824C6.9138 17.9085 6.78984 17.5283 6.52005 17.2627L2.75859 13.6168C2.44401 13.3116 2.33464 12.8533 2.47839 12.4397C2.61797 12.0272 2.97422 11.7262 3.40443 11.6585L8.58151 10.9074C8.97526 10.8668 9.32109 10.6272 9.49818 10.2731L11.7794 5.59599C11.8336 5.49182 11.9034 5.39599 11.9878 5.31474L12.0815 5.24182C12.1305 5.18765 12.1867 5.14286 12.2492 5.1064L12.3628 5.06474L12.5398 4.99182H12.9784C13.3701 5.03245 13.7148 5.26682 13.8951 5.61682L16.2065 10.2731C16.3732 10.6137 16.6971 10.8502 17.0711 10.9074L22.2482 11.6585C22.6857 11.721 23.0513 12.0231 23.1961 12.4397C23.3326 12.8574 23.2148 13.3158 22.894 13.6168L18.9982 17.3043Z" fill="#FFD53F"/>
<path d="M43.9982 17.3043C43.7284 17.5658 43.6044 17.9439 43.6659 18.3147L44.5919 23.4397C44.6701 23.8741 44.4867 24.3137 44.1232 24.5647C43.7669 24.8252 43.293 24.8564 42.9044 24.6481L38.2909 22.2418C38.1305 22.1564 37.9523 22.1106 37.7701 22.1054H37.4878C37.3898 22.1199 37.294 22.1512 37.2065 22.1991L32.5919 24.6168C32.3638 24.7314 32.1055 24.772 31.8523 24.7314C31.2357 24.6147 30.8242 24.0272 30.9253 23.4074L31.8523 18.2824C31.9138 17.9085 31.7898 17.5283 31.5201 17.2627L27.7586 13.6168C27.444 13.3116 27.3346 12.8533 27.4784 12.4397C27.618 12.0272 27.9742 11.7262 28.4044 11.6585L33.5815 10.9074C33.9753 10.8668 34.3211 10.6272 34.4982 10.2731L36.7794 5.59599C36.8336 5.49182 36.9034 5.39599 36.9878 5.31474L37.0815 5.24182C37.1305 5.18765 37.1867 5.14286 37.2492 5.1064L37.3628 5.06474L37.5398 4.99182H37.9784C38.3701 5.03245 38.7148 5.26682 38.8951 5.61682L41.2065 10.2731C41.3732 10.6137 41.6971 10.8502 42.0711 10.9074L47.2482 11.6585C47.6857 11.721 48.0513 12.0231 48.1961 12.4397C48.3326 12.8574 48.2148 13.3158 47.894 13.6168L43.9982 17.3043Z" fill="#FFD53F"/>
<path d="M68.9982 17.3043C68.7284 17.5658 68.6044 17.9439 68.6659 18.3147L69.5919 23.4397C69.6701 23.8741 69.4867 24.3137 69.1232 24.5647C68.7669 24.8252 68.293 24.8564 67.9044 24.6481L63.2909 22.2418C63.1305 22.1564 62.9523 22.1106 62.7701 22.1054H62.4878C62.3898 22.1199 62.294 22.1512 62.2065 22.1991L57.5919 24.6168C57.3638 24.7314 57.1055 24.772 56.8523 24.7314C56.2357 24.6147 55.8242 24.0272 55.9253 23.4074L56.8523 18.2824C56.9138 17.9085 56.7898 17.5283 56.5201 17.2627L52.7586 13.6168C52.444 13.3116 52.3346 12.8533 52.4784 12.4397C52.618 12.0272 52.9742 11.7262 53.4044 11.6585L58.5815 10.9074C58.9753 10.8668 59.3211 10.6272 59.4982 10.2731L61.7794 5.59599C61.8336 5.49182 61.9034 5.39599 61.9878 5.31474L62.0815 5.24182C62.1305 5.18765 62.1867 5.14286 62.2492 5.1064L62.3628 5.06474L62.5398 4.99182H62.9784C63.3701 5.03245 63.7148 5.26682 63.8951 5.61682L66.2065 10.2731C66.3732 10.6137 66.6971 10.8502 67.0711 10.9074L72.2482 11.6585C72.6857 11.721 73.0513 12.0231 73.1961 12.4397C73.3326 12.8574 73.2148 13.3158 72.894 13.6168L68.9982 17.3043Z" fill="#FFD53F"/>
<path d="M93.9982 17.3043C93.7284 17.5658 93.6044 17.9439 93.6659 18.3147L94.5919 23.4397C94.6701 23.8741 94.4867 24.3137 94.1232 24.5647C93.7669 24.8252 93.293 24.8564 92.9044 24.6481L88.2909 22.2418C88.1305 22.1564 87.9523 22.1106 87.7701 22.1054H87.4878C87.3898 22.1199 87.294 22.1512 87.2065 22.1991L82.5919 24.6168C82.3638 24.7314 82.1055 24.772 81.8523 24.7314C81.2357 24.6147 80.8242 24.0272 80.9253 23.4074L81.8523 18.2824C81.9138 17.9085 81.7898 17.5283 81.5201 17.2627L77.7586 13.6168C77.444 13.3116 77.3346 12.8533 77.4784 12.4397C77.618 12.0272 77.9742 11.7262 78.4044 11.6585L83.5815 10.9074C83.9753 10.8668 84.3211 10.6272 84.4982 10.2731L86.7794 5.59599C86.8336 5.49182 86.9034 5.39599 86.9878 5.31474L87.0815 5.24182C87.1305 5.18765 87.1867 5.14286 87.2492 5.1064L87.3628 5.06474L87.5398 4.99182H87.9784C88.3701 5.03245 88.7148 5.26682 88.8951 5.61682L91.2065 10.2731C91.3732 10.6137 91.6971 10.8502 92.0711 10.9074L97.2482 11.6585C97.6857 11.721 98.0513 12.0231 98.1961 12.4397C98.3326 12.8574 98.2148 13.3158 97.894 13.6168L93.9982 17.3043Z" fill="#FFD53F"/>
<path d="M118.998 17.3043C118.728 17.5658 118.604 17.9439 118.666 18.3147L119.592 23.4397C119.67 23.8741 119.487 24.3137 119.123 24.5647C118.767 24.8252 118.293 24.8564 117.904 24.6481L113.291 22.2418C113.13 22.1564 112.952 22.1106 112.77 22.1054H112.488C112.39 22.1199 112.294 22.1512 112.207 22.1991L107.592 24.6168C107.364 24.7314 107.105 24.772 106.852 24.7314C106.236 24.6147 105.824 24.0272 105.925 23.4074L106.852 18.2824C106.914 17.9085 106.79 17.5283 106.52 17.2627L102.759 13.6168C102.444 13.3116 102.335 12.8533 102.478 12.4397C102.618 12.0272 102.974 11.7262 103.404 11.6585L108.582 10.9074C108.975 10.8668 109.321 10.6272 109.498 10.2731L111.779 5.59599C111.834 5.49182 111.903 5.39599 111.988 5.31474L112.082 5.24182C112.13 5.18765 112.187 5.14286 112.249 5.1064L112.363 5.06474L112.54 4.99182H112.978C113.37 5.03245 113.715 5.26682 113.895 5.61682L116.207 10.2731C116.373 10.6137 116.697 10.8502 117.071 10.9074L122.248 11.6585C122.686 11.721 123.051 12.0231 123.196 12.4397C123.333 12.8574 123.215 13.3158 122.894 13.6168L118.998 17.3043Z" stroke="#FFD53F"/>
<path d="M131.732 19.8081V18.0695L139.402 5.93315H140.664V8.62633H139.811L134.016 17.7968V17.9331H144.345V19.8081H131.732ZM139.948 23.3877V19.2797V18.4701V5.93315H141.959V23.3877H139.948ZM147.859 23.5241C147.438 23.5241 147.078 23.3735 146.777 23.0724C146.475 22.7712 146.325 22.4104 146.325 21.99C146.325 21.5695 146.475 21.2087 146.777 20.9076C147.078 20.6064 147.438 20.4559 147.859 20.4559C148.279 20.4559 148.64 20.6064 148.941 20.9076C149.242 21.2087 149.393 21.5695 149.393 21.99C149.393 22.2684 149.322 22.5241 149.18 22.757C149.044 22.99 148.859 23.1775 148.626 23.3195C148.399 23.4559 148.143 23.5241 147.859 23.5241ZM157.692 23.6263C156.408 23.6263 155.314 23.2769 154.411 22.578C153.507 21.8735 152.817 20.8536 152.34 19.5184C151.863 18.1775 151.624 16.5581 151.624 14.6604C151.624 12.7741 151.863 11.1633 152.34 9.82804C152.823 8.48713 153.516 7.4644 154.419 6.75985C155.328 6.04963 156.419 5.69451 157.692 5.69451C158.965 5.69451 160.053 6.04963 160.956 6.75985C161.865 7.4644 162.559 8.48713 163.036 9.82804C163.519 11.1633 163.76 12.7741 163.76 14.6604C163.76 16.5581 163.522 18.1775 163.044 19.5184C162.567 20.8536 161.877 21.8735 160.973 22.578C160.07 23.2769 158.976 23.6263 157.692 23.6263ZM157.692 21.7513C158.965 21.7513 159.953 21.1377 160.658 19.9104C161.363 18.6831 161.715 16.9331 161.715 14.6604C161.715 13.1491 161.553 11.8621 161.229 10.7996C160.911 9.73713 160.451 8.92747 159.848 8.37065C159.252 7.81383 158.533 7.53542 157.692 7.53542C156.431 7.53542 155.445 8.15758 154.735 9.4019C154.024 10.6405 153.669 12.3934 153.669 14.6604C153.669 16.1718 153.828 17.4559 154.147 18.5127C154.465 19.5695 154.922 20.3735 155.519 20.9246C156.121 21.4758 156.846 21.7513 157.692 21.7513Z" fill="#FCFCFD"/>
</svg>
