<svg width="167" height="30" viewBox="0 0 167 30" fill="none" xmlns="http://www.w3.org/2000/svg">
<path d="M19.3302 17.3043C19.0604 17.5658 18.9365 17.9439 18.9979 18.3147L19.924 23.4397C20.0021 23.8741 19.8188 24.3137 19.4552 24.5647C19.099 24.8252 18.625 24.8564 18.2365 24.6481L13.6229 22.2418C13.4625 22.1564 13.2844 22.1106 13.1021 22.1054H12.8198C12.7219 22.1199 12.626 22.1512 12.5385 22.1991L7.92396 24.6168C7.69583 24.7314 7.4375 24.772 7.18438 24.7314C6.56771 24.6147 6.15625 24.0272 6.25729 23.4074L7.18438 18.2824C7.24583 17.9085 7.12188 17.5283 6.85208 17.2627L3.09063 13.6168C2.77604 13.3116 2.66667 12.8533 2.81042 12.4397C2.95 12.0272 3.30625 11.7262 3.73646 11.6585L8.91354 10.9074C9.30729 10.8668 9.65313 10.6272 9.83021 10.2731L12.1115 5.59599C12.1656 5.49182 12.2354 5.39599 12.3198 5.31474L12.4135 5.24182C12.4625 5.18765 12.5188 5.14286 12.5813 5.1064L12.6948 5.06474L12.8719 4.99182H13.3104C13.7021 5.03245 14.0469 5.26682 14.2271 5.61682L16.5385 10.2731C16.7052 10.6137 17.0292 10.8502 17.4031 10.9074L22.5802 11.6585C23.0177 11.721 23.3833 12.0231 23.5281 12.4397C23.6646 12.8574 23.5469 13.3158 23.226 13.6168L19.3302 17.3043Z" fill="#FFD53F"/>
<path d="M44.3302 17.3043C44.0604 17.5658 43.9365 17.9439 43.9979 18.3147L44.924 23.4397C45.0021 23.8741 44.8188 24.3137 44.4552 24.5647C44.099 24.8252 43.625 24.8564 43.2365 24.6481L38.6229 22.2418C38.4625 22.1564 38.2844 22.1106 38.1021 22.1054H37.8198C37.7219 22.1199 37.626 22.1512 37.5385 22.1991L32.924 24.6168C32.6958 24.7314 32.4375 24.772 32.1844 24.7314C31.5677 24.6147 31.1563 24.0272 31.2573 23.4074L32.1844 18.2824C32.2458 17.9085 32.1219 17.5283 31.8521 17.2627L28.0906 13.6168C27.776 13.3116 27.6667 12.8533 27.8104 12.4397C27.95 12.0272 28.3063 11.7262 28.7365 11.6585L33.9135 10.9074C34.3073 10.8668 34.6531 10.6272 34.8302 10.2731L37.1115 5.59599C37.1656 5.49182 37.2354 5.39599 37.3198 5.31474L37.4135 5.24182C37.4625 5.18765 37.5188 5.14286 37.5813 5.1064L37.6948 5.06474L37.8719 4.99182H38.3104C38.7021 5.03245 39.0469 5.26682 39.2271 5.61682L41.5385 10.2731C41.7052 10.6137 42.0292 10.8502 42.4031 10.9074L47.5802 11.6585C48.0177 11.721 48.3833 12.0231 48.5281 12.4397C48.6646 12.8574 48.5469 13.3158 48.226 13.6168L44.3302 17.3043Z" fill="#FFD53F"/>
<path d="M69.3302 17.3043C69.0604 17.5658 68.9365 17.9439 68.9979 18.3147L69.924 23.4397C70.0021 23.8741 69.8188 24.3137 69.4552 24.5647C69.099 24.8252 68.625 24.8564 68.2365 24.6481L63.6229 22.2418C63.4625 22.1564 63.2844 22.1106 63.1021 22.1054H62.8198C62.7219 22.1199 62.626 22.1512 62.5385 22.1991L57.924 24.6168C57.6958 24.7314 57.4375 24.772 57.1844 24.7314C56.5677 24.6147 56.1563 24.0272 56.2573 23.4074L57.1844 18.2824C57.2458 17.9085 57.1219 17.5283 56.8521 17.2627L53.0906 13.6168C52.776 13.3116 52.6667 12.8533 52.8104 12.4397C52.95 12.0272 53.3063 11.7262 53.7365 11.6585L58.9135 10.9074C59.3073 10.8668 59.6531 10.6272 59.8302 10.2731L62.1115 5.59599C62.1656 5.49182 62.2354 5.39599 62.3198 5.31474L62.4135 5.24182C62.4625 5.18765 62.5188 5.14286 62.5813 5.1064L62.6948 5.06474L62.8719 4.99182H63.3104C63.7021 5.03245 64.0469 5.26682 64.2271 5.61682L66.5385 10.2731C66.7052 10.6137 67.0292 10.8502 67.4031 10.9074L72.5802 11.6585C73.0177 11.721 73.3833 12.0231 73.5281 12.4397C73.6646 12.8574 73.5469 13.3158 73.226 13.6168L69.3302 17.3043Z" fill="#FFD53F"/>
<path d="M94.3302 17.3043C94.0604 17.5658 93.9365 17.9439 93.9979 18.3147L94.924 23.4397C95.0021 23.8741 94.8188 24.3137 94.4552 24.5647C94.099 24.8252 93.625 24.8564 93.2365 24.6481L88.6229 22.2418C88.4625 22.1564 88.2844 22.1106 88.1021 22.1054H87.8198C87.7219 22.1199 87.626 22.1512 87.5385 22.1991L82.924 24.6168C82.6958 24.7314 82.4375 24.772 82.1844 24.7314C81.5677 24.6147 81.1563 24.0272 81.2573 23.4074L82.1844 18.2824C82.2458 17.9085 82.1219 17.5283 81.8521 17.2627L78.0906 13.6168C77.776 13.3116 77.6667 12.8533 77.8104 12.4397C77.95 12.0272 78.3063 11.7262 78.7365 11.6585L83.9135 10.9074C84.3073 10.8668 84.6531 10.6272 84.8302 10.2731L87.1115 5.59599C87.1656 5.49182 87.2354 5.39599 87.3198 5.31474L87.4135 5.24182C87.4625 5.18765 87.5188 5.14286 87.5813 5.1064L87.6948 5.06474L87.8719 4.99182H88.3104C88.7021 5.03245 89.0469 5.26682 89.2271 5.61682L91.5385 10.2731C91.7052 10.6137 92.0292 10.8502 92.4031 10.9074L97.5802 11.6585C98.0177 11.721 98.3833 12.0231 98.5281 12.4397C98.6646 12.8574 98.5469 13.3158 98.226 13.6168L94.3302 17.3043Z" stroke="#FFD53F"/>
<path d="M119.33 17.3043C119.06 17.5658 118.936 17.9439 118.998 18.3147L119.924 23.4397C120.002 23.8741 119.819 24.3137 119.455 24.5647C119.099 24.8252 118.625 24.8564 118.236 24.6481L113.623 22.2418C113.463 22.1564 113.284 22.1106 113.102 22.1054H112.82C112.722 22.1199 112.626 22.1512 112.539 22.1991L107.924 24.6168C107.696 24.7314 107.438 24.772 107.184 24.7314C106.568 24.6147 106.156 24.0272 106.257 23.4074L107.184 18.2824C107.246 17.9085 107.122 17.5283 106.852 17.2627L103.091 13.6168C102.776 13.3116 102.667 12.8533 102.81 12.4397C102.95 12.0272 103.306 11.7262 103.736 11.6585L108.914 10.9074C109.307 10.8668 109.653 10.6272 109.83 10.2731L112.111 5.59599C112.166 5.49182 112.235 5.39599 112.32 5.31474L112.414 5.24182C112.463 5.18765 112.519 5.14286 112.581 5.1064L112.695 5.06474L112.872 4.99182H113.31C113.702 5.03245 114.047 5.26682 114.227 5.61682L116.539 10.2731C116.705 10.6137 117.029 10.8502 117.403 10.9074L122.58 11.6585C123.018 11.721 123.383 12.0231 123.528 12.4397C123.665 12.8574 123.547 13.3158 123.226 13.6168L119.33 17.3043Z" stroke="#FFD53F"/>
<path d="M138.371 23.6263C137.246 23.6263 136.243 23.4331 135.362 23.0468C134.487 22.6604 133.791 22.1235 133.274 21.436C132.763 20.7428 132.484 19.9388 132.439 19.0241H134.586C134.632 19.5866 134.825 20.0724 135.166 20.4814C135.507 20.8849 135.953 21.1974 136.504 21.4189C137.055 21.6405 137.666 21.7513 138.336 21.7513C139.086 21.7513 139.751 21.6206 140.331 21.3593C140.91 21.0979 141.365 20.7343 141.694 20.2684C142.024 19.8025 142.189 19.2627 142.189 18.6491C142.189 18.007 142.03 17.4417 141.711 16.953C141.393 16.4587 140.927 16.0724 140.314 15.7939C139.7 15.5155 138.95 15.3763 138.064 15.3763H136.666V13.5013H138.064C138.757 13.5013 139.365 13.3763 139.888 13.1263C140.416 12.8763 140.828 12.5241 141.123 12.0695C141.425 11.615 141.575 11.0809 141.575 10.4672C141.575 9.87633 141.444 9.36213 141.183 8.92463C140.922 8.48713 140.552 8.14622 140.075 7.9019C139.604 7.65758 139.047 7.53542 138.405 7.53542C137.802 7.53542 137.234 7.64622 136.7 7.86781C136.172 8.08372 135.74 8.39906 135.405 8.81383C135.069 9.22292 134.888 9.71724 134.859 10.2968H132.814C132.848 9.38201 133.123 8.58088 133.64 7.89338C134.157 7.20019 134.834 6.66042 135.669 6.27406C136.51 5.88769 137.433 5.69451 138.439 5.69451C139.518 5.69451 140.444 5.91326 141.217 6.35076C141.99 6.78258 142.584 7.3536 142.998 8.06383C143.413 8.77406 143.621 9.5411 143.621 10.365C143.621 11.3479 143.362 12.186 142.845 12.8792C142.334 13.5724 141.638 14.0525 140.757 14.3195V14.4559C141.859 14.6377 142.72 15.1064 143.339 15.8621C143.959 16.6121 144.268 17.5411 144.268 18.6491C144.268 19.5979 144.01 20.4502 143.493 21.2059C142.981 21.9559 142.282 22.5468 141.396 22.9786C140.51 23.4104 139.501 23.6263 138.371 23.6263ZM148.355 23.5241C147.935 23.5241 147.574 23.3735 147.273 23.0724C146.971 22.7712 146.821 22.4104 146.821 21.99C146.821 21.5695 146.971 21.2087 147.273 20.9076C147.574 20.6064 147.935 20.4559 148.355 20.4559C148.775 20.4559 149.136 20.6064 149.437 20.9076C149.739 21.2087 149.889 21.5695 149.889 21.99C149.889 22.2684 149.818 22.5241 149.676 22.757C149.54 22.99 149.355 23.1775 149.122 23.3195C148.895 23.4559 148.639 23.5241 148.355 23.5241ZM158.188 23.6263C156.904 23.6263 155.81 23.2769 154.907 22.578C154.004 21.8735 153.313 20.8536 152.836 19.5184C152.359 18.1775 152.12 16.5581 152.12 14.6604C152.12 12.7741 152.359 11.1633 152.836 9.82804C153.319 8.48713 154.012 7.4644 154.915 6.75985C155.825 6.04963 156.915 5.69451 158.188 5.69451C159.461 5.69451 160.549 6.04963 161.452 6.75985C162.362 7.4644 163.055 8.48713 163.532 9.82804C164.015 11.1633 164.256 12.7741 164.256 14.6604C164.256 16.5581 164.018 18.1775 163.54 19.5184C163.063 20.8536 162.373 21.8735 161.469 22.578C160.566 23.2769 159.472 23.6263 158.188 23.6263ZM158.188 21.7513C159.461 21.7513 160.45 21.1377 161.154 19.9104C161.859 18.6831 162.211 16.9331 162.211 14.6604C162.211 13.1491 162.049 11.8621 161.725 10.7996C161.407 9.73713 160.947 8.92747 160.344 8.37065C159.748 7.81383 159.029 7.53542 158.188 7.53542C156.927 7.53542 155.941 8.15758 155.231 9.4019C154.521 10.6405 154.165 12.3934 154.165 14.6604C154.165 16.1718 154.325 17.4559 154.643 18.5127C154.961 19.5695 155.418 20.3735 156.015 20.9246C156.617 21.4758 157.342 21.7513 158.188 21.7513Z" fill="#FCFCFD"/>
</svg>
