<svg width="165" height="30" viewBox="0 0 165 30" fill="none" xmlns="http://www.w3.org/2000/svg">
<path d="M18.6642 17.3043C18.3944 17.5658 18.2704 17.9439 18.3319 18.3147L19.2579 23.4397C19.3361 23.8741 19.1527 24.3137 18.7892 24.5647C18.4329 24.8252 17.959 24.8564 17.5704 24.6481L12.9569 22.2418C12.7965 22.1564 12.6184 22.1106 12.4361 22.1054H12.1538C12.0559 22.1199 11.96 22.1512 11.8725 22.1991L7.25794 24.6168C7.02982 24.7314 6.77149 24.772 6.51836 24.7314C5.90169 24.6147 5.49024 24.0272 5.59128 23.4074L6.51836 18.2824C6.57982 17.9085 6.45586 17.5283 6.18607 17.2627L2.42461 13.6168C2.11003 13.3116 2.00065 12.8533 2.1444 12.4397C2.28399 12.0272 2.64024 11.7262 3.07044 11.6585L8.24753 10.9074C8.64128 10.8668 8.98711 10.6272 9.16419 10.2731L11.4454 5.59599C11.4996 5.49182 11.5694 5.39599 11.6538 5.31474L11.7475 5.24182C11.7965 5.18765 11.8527 5.14286 11.9152 5.1064L12.0288 5.06474L12.2059 4.99182H12.6444C13.0361 5.03245 13.3809 5.26682 13.5611 5.61682L15.8725 10.2731C16.0392 10.6137 16.3632 10.8502 16.7371 10.9074L21.9142 11.6585C22.3517 11.721 22.7173 12.0231 22.8621 12.4397C22.9986 12.8574 22.8809 13.3158 22.56 13.6168L18.6642 17.3043Z" fill="#FFD53F"/>
<path d="M43.6642 17.3043C43.3944 17.5658 43.2704 17.9439 43.3319 18.3147L44.2579 23.4397C44.3361 23.8741 44.1527 24.3137 43.7892 24.5647C43.4329 24.8252 42.959 24.8564 42.5704 24.6481L37.9569 22.2418C37.7965 22.1564 37.6184 22.1106 37.4361 22.1054H37.1538C37.0559 22.1199 36.96 22.1512 36.8725 22.1991L32.2579 24.6168C32.0298 24.7314 31.7715 24.772 31.5184 24.7314C30.9017 24.6147 30.4902 24.0272 30.5913 23.4074L31.5184 18.2824C31.5798 17.9085 31.4559 17.5283 31.1861 17.2627L27.4246 13.6168C27.11 13.3116 27.0007 12.8533 27.1444 12.4397C27.284 12.0272 27.6402 11.7262 28.0704 11.6585L33.2475 10.9074C33.6413 10.8668 33.9871 10.6272 34.1642 10.2731L36.4454 5.59599C36.4996 5.49182 36.5694 5.39599 36.6538 5.31474L36.7475 5.24182C36.7965 5.18765 36.8527 5.14286 36.9152 5.1064L37.0288 5.06474L37.2059 4.99182H37.6444C38.0361 5.03245 38.3809 5.26682 38.5611 5.61682L40.8725 10.2731C41.0392 10.6137 41.3632 10.8502 41.7371 10.9074L46.9142 11.6585C47.3517 11.721 47.7173 12.0231 47.8621 12.4397C47.9986 12.8574 47.8809 13.3158 47.56 13.6168L43.6642 17.3043Z" fill="#FFD53F"/>
<path d="M68.6642 17.3043C68.3944 17.5658 68.2704 17.9439 68.3319 18.3147L69.2579 23.4397C69.3361 23.8741 69.1527 24.3137 68.7892 24.5647C68.4329 24.8252 67.959 24.8564 67.5704 24.6481L62.9569 22.2418C62.7965 22.1564 62.6184 22.1106 62.4361 22.1054H62.1538C62.0559 22.1199 61.96 22.1512 61.8725 22.1991L57.2579 24.6168C57.0298 24.7314 56.7715 24.772 56.5184 24.7314C55.9017 24.6147 55.4902 24.0272 55.5913 23.4074L56.5184 18.2824C56.5798 17.9085 56.4559 17.5283 56.1861 17.2627L52.4246 13.6168C52.11 13.3116 52.0007 12.8533 52.1444 12.4397C52.284 12.0272 52.6402 11.7262 53.0704 11.6585L58.2475 10.9074C58.6413 10.8668 58.9871 10.6272 59.1642 10.2731L61.4454 5.59599C61.4996 5.49182 61.5694 5.39599 61.6538 5.31474L61.7475 5.24182C61.7965 5.18765 61.8527 5.14286 61.9152 5.1064L62.0288 5.06474L62.2059 4.99182H62.6444C63.0361 5.03245 63.3809 5.26682 63.5611 5.61682L65.8725 10.2731C66.0392 10.6137 66.3632 10.8502 66.7371 10.9074L71.9142 11.6585C72.3517 11.721 72.7173 12.0231 72.8621 12.4397C72.9986 12.8574 72.8809 13.3158 72.56 13.6168L68.6642 17.3043Z" fill="#FFD53F"/>
<path d="M93.6642 17.3043C93.3944 17.5658 93.2704 17.9439 93.3319 18.3147L94.2579 23.4397C94.3361 23.8741 94.1527 24.3137 93.7892 24.5647C93.4329 24.8252 92.959 24.8564 92.5704 24.6481L87.9569 22.2418C87.7965 22.1564 87.6184 22.1106 87.4361 22.1054H87.1538C87.0559 22.1199 86.96 22.1512 86.8725 22.1991L82.2579 24.6168C82.0298 24.7314 81.7715 24.772 81.5184 24.7314C80.9017 24.6147 80.4902 24.0272 80.5913 23.4074L81.5184 18.2824C81.5798 17.9085 81.4559 17.5283 81.1861 17.2627L77.4246 13.6168C77.11 13.3116 77.0007 12.8533 77.1444 12.4397C77.284 12.0272 77.6402 11.7262 78.0704 11.6585L83.2475 10.9074C83.6413 10.8668 83.9871 10.6272 84.1642 10.2731L86.4454 5.59599C86.4996 5.49182 86.5694 5.39599 86.6538 5.31474L86.7475 5.24182C86.7965 5.18765 86.8527 5.14286 86.9152 5.1064L87.0288 5.06474L87.2059 4.99182H87.6444C88.0361 5.03245 88.3809 5.26682 88.5611 5.61682L90.8725 10.2731C91.0392 10.6137 91.3632 10.8502 91.7371 10.9074L96.9142 11.6585C97.3517 11.721 97.7173 12.0231 97.8621 12.4397C97.9986 12.8574 97.8809 13.3158 97.56 13.6168L93.6642 17.3043Z" fill="#FFD53F"/>
<path d="M118.664 17.3043C118.394 17.5658 118.27 17.9439 118.332 18.3147L119.258 23.4397C119.336 23.8741 119.153 24.3137 118.789 24.5647C118.433 24.8252 117.959 24.8564 117.57 24.6481L112.957 22.2418C112.796 22.1564 112.618 22.1106 112.436 22.1054H112.154C112.056 22.1199 111.96 22.1512 111.873 22.1991L107.258 24.6168C107.03 24.7314 106.771 24.772 106.518 24.7314C105.902 24.6147 105.49 24.0272 105.591 23.4074L106.518 18.2824C106.58 17.9085 106.456 17.5283 106.186 17.2627L102.425 13.6168C102.11 13.3116 102.001 12.8533 102.144 12.4397C102.284 12.0272 102.64 11.7262 103.07 11.6585L108.248 10.9074C108.641 10.8668 108.987 10.6272 109.164 10.2731L111.445 5.59599C111.5 5.49182 111.569 5.39599 111.654 5.31474L111.748 5.24182C111.796 5.18765 111.853 5.14286 111.915 5.1064L112.029 5.06474L112.206 4.99182H112.644C113.036 5.03245 113.381 5.26682 113.561 5.61682L115.873 10.2731C116.039 10.6137 116.363 10.8502 116.737 10.9074L121.914 11.6585C122.352 11.721 122.717 12.0231 122.862 12.4397C122.999 12.8574 122.881 13.3158 122.56 13.6168L118.664 17.3043Z" fill="#FFD53F"/>
<path d="M137.261 23.6263C136.261 23.6263 135.361 23.4275 134.56 23.0297C133.759 22.632 133.116 22.0866 132.634 21.3934C132.151 20.7002 131.886 19.9104 131.841 19.0241H133.886C133.966 19.8138 134.324 20.4672 134.96 20.9843C135.602 21.4956 136.369 21.7513 137.261 21.7513C137.977 21.7513 138.614 21.5837 139.17 21.2485C139.733 20.9133 140.173 20.453 140.491 19.8678C140.815 19.2769 140.977 18.6093 140.977 17.865C140.977 17.1036 140.81 16.4246 140.474 15.828C140.145 15.2258 139.69 14.7513 139.111 14.4047C138.531 14.0581 137.869 13.882 137.125 13.8763C136.591 13.8706 136.043 13.953 135.48 14.1235C134.918 14.2883 134.455 14.5013 134.091 14.7627L132.114 14.5241L133.17 5.93315H142.239V7.80815H134.943L134.33 12.9559H134.432C134.79 12.6718 135.239 12.436 135.778 12.2485C136.318 12.061 136.881 11.9672 137.466 11.9672C138.534 11.9672 139.486 12.2229 140.321 12.7343C141.162 13.24 141.821 13.9331 142.298 14.8138C142.781 15.6945 143.023 16.7002 143.023 17.8309C143.023 18.9445 142.773 19.9388 142.273 20.8138C141.778 21.6831 141.097 22.3706 140.227 22.8763C139.358 23.3763 138.369 23.6263 137.261 23.6263ZM146.892 23.5241C146.472 23.5241 146.111 23.3735 145.81 23.0724C145.509 22.7712 145.358 22.4104 145.358 21.99C145.358 21.5695 145.509 21.2087 145.81 20.9076C146.111 20.6064 146.472 20.4559 146.892 20.4559C147.313 20.4559 147.673 20.6064 147.975 20.9076C148.276 21.2087 148.426 21.5695 148.426 21.99C148.426 22.2684 148.355 22.5241 148.213 22.757C148.077 22.99 147.892 23.1775 147.659 23.3195C147.432 23.4559 147.176 23.5241 146.892 23.5241ZM156.725 23.6263C155.441 23.6263 154.347 23.2769 153.444 22.578C152.541 21.8735 151.85 20.8536 151.373 19.5184C150.896 18.1775 150.657 16.5581 150.657 14.6604C150.657 12.7741 150.896 11.1633 151.373 9.82804C151.856 8.48713 152.549 7.4644 153.453 6.75985C154.362 6.04963 155.453 5.69451 156.725 5.69451C157.998 5.69451 159.086 6.04963 159.99 6.75985C160.899 7.4644 161.592 8.48713 162.069 9.82804C162.552 11.1633 162.793 12.7741 162.793 14.6604C162.793 16.5581 162.555 18.1775 162.078 19.5184C161.6 20.8536 160.91 21.8735 160.007 22.578C159.103 23.2769 158.009 23.6263 156.725 23.6263ZM156.725 21.7513C157.998 21.7513 158.987 21.1377 159.691 19.9104C160.396 18.6831 160.748 16.9331 160.748 14.6604C160.748 13.1491 160.586 11.8621 160.262 10.7996C159.944 9.73713 159.484 8.92747 158.882 8.37065C158.285 7.81383 157.566 7.53542 156.725 7.53542C155.464 7.53542 154.478 8.15758 153.768 9.4019C153.058 10.6405 152.703 12.3934 152.703 14.6604C152.703 16.1718 152.862 17.4559 153.18 18.5127C153.498 19.5695 153.955 20.3735 154.552 20.9246C155.154 21.4758 155.879 21.7513 156.725 21.7513Z" fill="#FCFCFD"/>
</svg>
